<?xml version="1.0" encoding="utf-8"?>
<!-- Generator: Adobe Illustrator 24.2.3, SVG Export Plug-In . SVG Version: 6.00 Build 0)  -->
<svg version="1.1" id="Capa_1" xmlns="http://www.w3.org/2000/svg" xmlns:xlink="http://www.w3.org/1999/xlink" x="0px" y="0px"
	 viewBox="0 0 512 512" style="enable-background:new 0 0 512 512;" xml:space="preserve">
<style type="text/css">
	.st0{fill:#FFC8C8;}
</style>
<g>
	<path class="st0" d="M50.4,129.1c3.2,2.2,6.4,4.4,9.6,6.5c3.9-6,8.1-11.9,12.5-17.6c-5.5-4.8-11.1-9.6-16.7-14.3
		c-5,6.3-9.6,12.8-14,19.5C44.7,125.2,47.6,127.1,50.4,129.1z"/>
	<path class="st0" d="M436.2,81.2C388.1,32.9,324.1,6.2,256,6.2c-66.2,0-128.5,25.2-176.1,71c3.8,4,7.7,8,11.6,11.9
		c1.2,1.2,2.4,2.5,3.7,3.9C138.7,51.2,195.6,28.2,256,28.2c62.2,0,120.7,24.3,164.6,68.5c44,44.2,68.2,102.9,68.2,165.3
		c0,50.1-15.5,97.8-44.9,138c-28.6,39.2-67.8,68.1-113.4,83.5c-1.7,0.3-2.6,0.1-2.8,0c-0.1-0.2-0.2-0.6-0.2-1.1
		c0-2.6,0-7.3,0.1-13.5c0.1-12.6,0.2-31.7,0.2-53.7c0-14-2.8-26.7-7.9-37.1c48.5-8.9,102.6-35.3,102.6-129
		c0-25.9-7.9-48.8-23.6-68.1c3.5-12.2,7.2-36.4-4.6-66.4l-1.9-4.8l-5-1.6c-4.1-1.3-26.6-6.3-72.3,23.6c-18.6-4.8-38.5-7.2-59-7.3
		H256c-20.5,0.1-40.3,2.6-59,7.3c-45.7-29.9-68.2-25-72.4-23.6l-5,1.6l-1.9,4.8c-11.8,30.1-8.1,54.2-4.6,66.4
		c-15.7,19.4-23.7,42.2-23.7,68.1c0,45.6,13.2,79.8,39.1,101.7c19.3,16.3,43.1,23.7,63.4,27.5c-2.5,5-4.4,10.6-5.7,16.6
		c-5.7,2-13.6,3.9-21.8,3.2c-12.5-1.1-22.3-8-29.9-21c-1.5-2.6-16.9-28.7-46.1-30.8l-0.6,0c-5.4-0.1-18.3,0.9-21.6,11.4
		c-3.7,11.7,8.9,20.3,13.6,23.5l0.5,0.4l0.9,0.4c1.3,0.7,12.8,7.5,21.5,29.6c1,3,5.8,15.7,19,26.7c18.9,15.8,42.7,17.7,62.6,15.4
		c0,5.6,0.1,10.6,0.1,14.9c0.1,6.4,0.1,11.1,0.1,13.7c0,0.5-0.1,0.9-0.2,1c-0.2,0.1-1.1,0.3-2.8,0c-45.6-15.4-84.9-44.3-113.5-83.5
		c-29.4-40.2-44.9-88-44.9-138.1c0-34,7.2-66.8,20.8-96.8c-1.5-0.8-3-1.6-4.4-2.4c-4.8-2.7-9.5-5.6-14.1-8.7
		c-0.1-0.1-0.3-0.2-0.4-0.3C9.4,187.3,1.2,224,1.2,262.1c0,54.8,17,107,49.2,151c31.5,43.1,74.8,74.9,125.1,91.7l0.7,0.2l0.8,0.1
		c10.8,2,17.7-1.4,21.5-4.6c5.1-4.3,8.1-10.8,8.1-18c0-2.8,0-7.4-0.1-13.9c-0.1-7.3-0.2-16.8-0.2-27.8l-0.1-13.6l-13.3,2.9
		c-24.1,5.3-43.1,2.6-56.3-7.9c-9.4-7.5-12.7-16.6-13-17.4l-0.3-0.8c-1.8-4.7-3.8-8.9-5.8-12.6c13.9,21.5,31.9,27.5,44.9,28.6
		c16.1,1.4,30.8-3.9,38.1-7.1l5.5-2.5l0.8-6c2.1-15.4,8.3-22.9,11.8-26l18.7-16.4l-24.7-2.8c-50.1-5.7-101.3-23.3-101.3-110
		c0-22.5,7.5-42.1,22.2-58.3l4.7-5.1l-2.6-6.4c-7.5-18.3-3.1-39.2,0.2-50c7.9,0.7,25,4.7,52.9,23.6l4.2,2.9l4.9-1.4
		c18.3-5.1,37.8-7.7,58.1-7.8c20.1,0.1,40.2,2.8,58.1,7.9l4.9,1.4l4.2-2.9c27.9-19,45.1-23,52.9-23.6c8.3,26.1,2.3,44.7,0.1,50.1
		l-2.6,6.4l4.7,5.1c14.7,16.1,22.2,35.7,22.2,58.3c0,86.8-51.3,104.2-101.5,109.9l-25,2.8l19,16.5c8,6.9,12.7,20.7,12.7,37
		c0,21.9-0.1,40.9-0.2,53.5c0,6.3-0.1,11-0.1,13.6c0,7.2,3,13.8,8.2,18.1c3.1,2.5,8,5.1,15.2,5.1c2,0,4.2-0.2,6.5-0.7l0.7-0.1
		l0.7-0.2c50.3-16.8,93.5-48.6,125-91.7c32.1-44,49.1-96.2,49.1-151C510.8,193.7,484.3,129.5,436.2,81.2z"/>
</g>
</svg>
